<?xml version="1.0" encoding="UTF-8"?>
<svg xmlns="http://www.w3.org/2000/svg" xmlns:xlink="http://www.w3.org/1999/xlink" viewBox="0 0 59.84 27.96">
  <defs>
    <style>
      .cls-1 {
        fill: url(#radial-gradient);
      }

      .cls-2 {
        isolation: isolate;
      }

      .cls-3 {
        fill: #fff;
      }

      .cls-4 {
        fill: #c7c7c7;
        mix-blend-mode: multiply;
        opacity: .18;
      }
    </style>
    <radialGradient id="radial-gradient" cx="29.23" cy="19.03" fx="29.23" fy="19.03" r="29.56" gradientUnits="userSpaceOnUse">
      <stop offset=".02" stop-color="#fff" stop-opacity="0"/>
      <stop offset=".11" stop-color="#fff" stop-opacity=".03"/>
      <stop offset=".24" stop-color="#fff" stop-opacity=".1"/>
      <stop offset=".38" stop-color="#fff" stop-opacity=".22"/>
      <stop offset=".54" stop-color="#fff" stop-opacity=".38"/>
      <stop offset=".72" stop-color="#fff" stop-opacity=".59"/>
      <stop offset=".9" stop-color="#fff" stop-opacity=".85"/>
      <stop offset="1" stop-color="#fff"/>
    </radialGradient>
  </defs>
  <g class="cls-2">
    <g id="Layer_2" data-name="Layer 2">
      <g id="Layer_1-2" data-name="Layer 1">
        <g>
          <g>
            <path class="cls-1" d="M33.23,27.42c-6.5,0-9.56-3.23-9.68-3.37-.13-.14-.17-.34-.12-.52,0-.02.68-2.23-.28-3.88-.51-.87-1.41-1.45-2.67-1.72-.54-.11-1.03-.17-1.47-.17-.48,0-.89.07-1.23.21-.55.23-.83.63-.98,1.03.29-.19.63-.37,1.01-.5.43-.16.86-.24,1.28-.24.75,0,1.46.25,2.1.76,1.18.92,1.61,2.4,1.12,3.87-.56,1.69-2.11,2.81-3.96,2.86h-.19c-2.15,0-3.12-.94-3.55-1.7-.77.71-2.29,1.71-4.7,1.71-.65,0-1.33-.07-2.02-.22-4.1-.87-4.48-2.85-4.81-4.59-.09-.48-.18-.93-.34-1.37-.64-1.76-1.62-1.83-1.67-1.84-.21-.01-.41-.15-.48-.35-.07-.2-.02-.43.13-.57,0,0,.12-.12.36-.29.05-.04.08-.06.11-.08.56-.34,1.19-.53,1.82-.53.8,0,1.61.29,2.4.85.88.63,1.73.98,2.38.98,1.46,0,1.84-1.87,1.9-3.44.1-2.9,2.19-4.71,5.45-4.71,1.54,0,3.17.41,4.68,1.17-.06-1.44.11-4.11,1.84-6.4,1.66-2.19,4.34-3.47,7.96-3.81.43-.04.85-.06,1.26-.06,5.73,0,8.79,3.84,9.21,7.41.36,3.07-1.15,6.61-5.35,7.61-.94.22-1.82.34-2.6.34h0c-1.72,0-3.06-.54-3.98-1.59-.28-.32-.5-.66-.67-1.01.02.07.05.14.08.21.4.98,1.27,1.71,2.6,2.17.91.31,1.86.47,2.82.47,3.95,0,7.21-2.67,7.26-5.94,0-.17.09-.34.24-.43.09-.06.19-.09.29-.09.07,0,.14.01.2.04.11.05,2.79,1.18,3.55,3.89.04.15.01.32-.07.44.75-.44,1.64-.7,2.56-.7,1.92,0,3.74,1.08,5.14,3.03,1.75,2.47,3.63,3.06,4.89,3.12h.23c.26,0,.5-.01.68-.04.29-.04.49-.1.58-.12.02,0,.1-.03.12-.03.03,0,.06,0,.09,0,.17,0,.32.08.43.21.12.16.14.38.05.55-.02.04-1.85,3.62-5.7,3.62-.25,0-.5-.01-.75-.04-.46.84-1.84,2.73-4.86,2.73-.41,0-.83-.04-1.27-.11-2.86-.46-4.39-2.07-5.16-3.3-.63,1.71-2.38,4.19-7.23,4.44-.36.02-.71.03-1.05.03ZM43.82,14.51c-.92.63-2.74,2.19-1.82,4.22.76,1.69,2.18,1.87,2.76,1.87.51,0,.87-.13,1.06-.23-.19-.1-.52-.22-.75-.31-1.15-.43-3.3-1.22-2.61-3.53.24-.79.72-1.48,1.37-2.02Z"/>
            <path class="cls-3" d="M30.92,1.06c9.92,0,11.69,12.08,3.74,13.97-.94.22-1.76.32-2.48.32-5.56,0-4.74-5.98-4.74-5.98,0,0-2.54,5.01,2.58,6.79.99.34,2.01.5,2.99.5,4.08,0,7.73-2.73,7.79-6.47,0,0,2.54,1.05,3.24,3.54,0,0-3.94,2.11-2.53,5.2.75,1.65,2.13,2.18,3.24,2.18.97,0,1.74-.41,1.7-.82-.09-.91-4.33-.83-3.49-3.62.47-1.55,2.13-2.81,4.08-2.81,1.54,0,3.26.78,4.7,2.81,1.87,2.63,3.9,3.28,5.3,3.34h0c.08,0,.17,0,.25,0,.29,0,.56-.02.77-.05.41-.06.66-.15.71-.16-.1.2-1.8,3.33-5.22,3.33-.34,0-.69-.03-1.06-.1,0,0-1.07,2.78-4.55,2.78-.37,0-.76-.03-1.18-.1-4.42-.71-5.42-4.41-5.42-4.41,0,0-.04,5.17-7.08,5.54-.35.02-.69.03-1.03.03-6.34,0-9.3-3.2-9.3-3.2,0,0,1.66-5.22-3.35-6.28-.6-.13-1.12-.18-1.58-.18-.59,0-1.06.09-1.43.25-1.72.71-1.43,2.72-1.43,2.72,0,0,.76-.82,1.84-1.21.34-.12.71-.21,1.1-.21.57,0,1.18.17,1.78.64,2.32,1.8.8,5.71-2.52,5.78-.06,0-.12,0-.18,0-3.15,0-3.36-2.17-3.36-2.17,0,0-1.45,2.18-4.89,2.18-.58,0-1.22-.06-1.91-.21-4.81-1.02-3.98-3.44-4.76-5.62-.8-2.19-2.15-2.19-2.15-2.19,0,0,.11-.1.31-.25.03-.02.05-.04.08-.06.33-.21.86-.45,1.54-.45.59,0,1.3.19,2.09.75.92.66,1.86,1.08,2.69,1.08,1.31,0,2.32-1.06,2.43-3.95.1-2.86,2.27-4.2,4.92-4.2,1.71,0,3.62.55,5.31,1.6,0,0-1.75-9.62,9.23-10.64.42-.04.82-.06,1.21-.06M30.92,0c-.43,0-.87.02-1.31.06-3.77.35-6.58,1.7-8.33,4.01-1.52,2.01-1.91,4.3-1.95,5.89-1.36-.57-2.79-.87-4.15-.87-3.52,0-5.87,2.05-5.98,5.22-.05,1.33-.33,2.92-1.37,2.92-.54,0-1.28-.31-2.07-.88-.88-.63-1.79-.95-2.71-.95-.73,0-1.45.21-2.09.61-.03.02-.09.06-.12.08,0,0-.02.01-.02.02-.27.2-.41.33-.41.33-.33.31-.5.81-.3,1.23.18.38.5.62.9.62.03,0,.06,0,.09,0,.14.03.73.24,1.19,1.49.14.39.22.83.31,1.29.35,1.81.78,4.06,5.22,5.01.74.15,1.45.23,2.14.23,2.16,0,3.65-.75,4.58-1.46.66.78,1.8,1.45,3.67,1.45.07,0,.13,0,.2,0,2.07-.05,3.82-1.31,4.45-3.22.43-1.29.24-2.59-.48-3.6.13.14.24.29.34.45.84,1.44.24,3.44.23,3.46-.11.36-.02.76.23,1.04.13.14,3.35,3.54,10.08,3.54.35,0,.71,0,1.08-.03,4.38-.23,6.39-2.19,7.31-3.92.94,1.16,2.49,2.38,4.97,2.78.46.07.92.11,1.35.11,2.96,0,4.49-1.68,5.14-2.7.16.01.32.02.47.02,4.16,0,6.15-3.87,6.17-3.91.18-.36.14-.79-.1-1.11-.2-.27-.52-.42-.85-.42-.06,0-.13,0-.19.02-.03,0-.08.02-.16.04-.09.03-.25.07-.5.11-.14.02-.35.04-.62.04-.07,0-.13,0-.2,0,0,0-.01,0-.02,0-1.14-.06-2.84-.61-4.46-2.9-1.5-2.1-3.48-3.25-5.57-3.25-.71,0-1.41.14-2.05.39-.92-2.78-3.66-3.94-3.78-3.99-.13-.05-.27-.08-.41-.08-.04,0-.07,0-.11,0,.02-.43,0-.85-.05-1.27-.44-3.8-3.68-7.88-9.74-7.88h0Z"/>
          </g>
          <path class="cls-4" d="M58.78,19.82c-.11.21-2.16,3.97-6.29,3.23,0,0-1.31,3.4-5.74,2.68-4.41-.71-5.42-4.41-5.42-4.41,0,0-.04,5.17-7.08,5.54-7.05.38-10.33-3.16-10.33-3.16,0,0,1.66-5.22-3.34-6.28-5.01-1.05-4.43,2.79-4.43,2.79,0,0,2.4-2.58,4.72-.77,2.32,1.8.8,5.71-2.52,5.78-3.32.08-3.53-2.17-3.53-2.17,0,0-1.99,2.98-6.8,1.97-4.81-1.02-3.98-3.44-4.76-5.62-.79-2.19-2.15-2.19-2.15-2.19,0,0,.14-.14.39-.3,1.74.19,3.76.97,5.64,3.06,4.66,5.13,6.19,1.05,9.1-3.11,2.91-4.16,9.54-3.71,11.81,1.65,2.26,5.36,7.77,4.69,9.5,1.53s3.64,1.41,6.91,3.14c3.28,1.73,4.94-3.66,4.94-3.66,0,0,1.41,2.9,6.18,1.15.52-.19,1.02-.41,1.46-.64.01,0,.01,0,.01,0,.99.05,1.65-.18,1.72-.2Z"/>
        </g>
      </g>
    </g>
  </g>
</svg>