<?xml version="1.0" encoding="UTF-8"?>
<svg xmlns="http://www.w3.org/2000/svg" xmlns:xlink="http://www.w3.org/1999/xlink" viewBox="0 0 32.13 21.66">
  <defs>
    <style>
      .cls-1 {
        fill: url(#linear-gradient-8);
      }

      .cls-2 {
        fill: url(#linear-gradient-7);
      }

      .cls-3 {
        fill: url(#linear-gradient-5);
      }

      .cls-4 {
        fill: url(#linear-gradient-6);
      }

      .cls-5 {
        fill: url(#linear-gradient-9);
      }

      .cls-6 {
        fill: url(#linear-gradient-4);
      }

      .cls-7 {
        fill: url(#linear-gradient-3);
      }

      .cls-8 {
        isolation: isolate;
      }

      .cls-9 {
        fill: #fffcf6;
        mix-blend-mode: overlay;
      }

      .cls-10 {
        fill: #ed8ec8;
      }

      .cls-11 {
        fill: #49c3fc;
      }

      .cls-11, .cls-12 {
        mix-blend-mode: multiply;
        opacity: .22;
      }

      .cls-13 {
        fill: url(#linear-gradient-10);
      }

      .cls-14 {
        stroke: url(#linear-gradient);
      }

      .cls-14, .cls-15 {
        fill: none;
        stroke-miterlimit: 10;
        stroke-width: .5px;
      }

      .cls-15 {
        stroke: url(#linear-gradient-2);
      }

      .cls-12 {
        fill: #fc74c8;
      }

      .cls-16 {
        fill: #ed61c7;
      }
    </style>
    <linearGradient id="linear-gradient" x1="24.92" y1="0" x2="24.16" y2="10.33" gradientUnits="userSpaceOnUse">
      <stop offset="0" stop-color="#fffce8"/>
      <stop offset=".52" stop-color="#faf8ea"/>
      <stop offset=".92" stop-color="#f2f2f0"/>
    </linearGradient>
    <linearGradient id="linear-gradient-2" x1="6.73" y1="0" x2="6.28" y2="6.09" xlink:href="#linear-gradient"/>
    <linearGradient id="linear-gradient-3" x1="20.08" y1="18.99" x2="29" y2="18.99" gradientUnits="userSpaceOnUse">
      <stop offset="0" stop-color="#e8faff"/>
      <stop offset=".52" stop-color="#e9f5fa"/>
      <stop offset=".92" stop-color="#ebeef2"/>
    </linearGradient>
    <linearGradient id="linear-gradient-4" x1="20.23" y1="18.99" x2="28.85" y2="18.99" xlink:href="#linear-gradient"/>
    <linearGradient id="linear-gradient-5" x1="17.19" y1="10.72" x2="31.89" y2="10.72" gradientUnits="userSpaceOnUse">
      <stop offset="0" stop-color="#f8e8ff"/>
      <stop offset=".43" stop-color="#f6e8fa"/>
      <stop offset=".91" stop-color="#f2eaed"/>
      <stop offset=".92" stop-color="#f2ebed"/>
    </linearGradient>
    <linearGradient id="linear-gradient-6" x1="17.44" y1="10.72" x2="31.64" y2="10.72" xlink:href="#linear-gradient"/>
    <linearGradient id="linear-gradient-7" x1="2.68" y1="15.52" x2="10.32" y2="15.52" xlink:href="#linear-gradient-3"/>
    <linearGradient id="linear-gradient-8" x1="2.81" y1="15.52" x2="10.19" y2="15.52" xlink:href="#linear-gradient"/>
    <linearGradient id="linear-gradient-9" x1=".21" y1="8.44" x2="12.8" y2="8.44" xlink:href="#linear-gradient-5"/>
    <linearGradient id="linear-gradient-10" x1=".42" y1="8.44" x2="12.58" y2="8.44" xlink:href="#linear-gradient"/>
  </defs>
  <g class="cls-8">
    <g id="Layer_2" data-name="Layer 2">
      <g id="Layer_1-2" data-name="Layer 1">
        <g>
          <line class="cls-14" x1="24.54" y1="10.34" x2="24.54" y2="0"/>
          <line class="cls-15" x1="6.5" x2="6.5" y2="6.09"/>
          <g>
            <g>
              <path class="cls-7" d="M23.39,21.5c-.57-.02-.9-.28-1.08-.49-.2-.23-.29-.49-.33-.64h-.05c-.25,0-.73-.02-1.14-.17-.69-.25-.76-.71-.7-1.05.18-1.02,1.48-1.13,2.03-1.13.03,0,.05,0,.08,0-.01-.21,0-.58.23-.9.24-.35.66-.56,1.23-.63.16-.02.3-.03.43-.03.55,0,.95.15,1.18.43.06.08.1.15.13.22.15-.09.38-.21.65-.25.06-.01.13-.02.2-.02.26,0,.5.09.7.26.53.45.8.91.9,1.12.08-.02.18-.03.3-.03.28,0,.51.09.65.26.16.19.22.48.16.85-.02.16-.06.29-.1.39-.16.43-.49.67-.94.67-.07,0-.14,0-.2-.02-.04.29-.23.81-1.08.96-.16.03-.32.04-.47.04-.64,0-1.13-.23-1.35-.35-.15.2-.51.51-1.3.51h-.16Z"/>
              <path class="cls-16" d="M24.1,16.62c1.22,0,1.22.75,1.22.75,0,0,.34-.29.76-.36.06,0,.12-.02.18-.02.2,0,.41.06.6.23.68.58.92,1.18.92,1.18,0,0,.18-.05.38-.05.35,0,.78.15.67.93-.02.14-.05.26-.09.36-.18.48-.53.58-.8.58-.19,0-.34-.05-.34-.05,0,0,.11.81-.96.99-.15.03-.3.04-.44.04-.83,0-1.4-.41-1.4-.41,0,0-.22.56-1.25.56-.05,0-.1,0-.15,0-.48-.02-.78-.22-.97-.44-.28-.32-.32-.7-.32-.7,0,0-.06,0-.17,0-.24,0-.7-.02-1.09-.16-.39-.14-.69-.4-.6-.88.16-.9,1.36-1,1.89-1,.15,0,.25,0,.25,0,0,0-.32-1.34,1.31-1.53.15-.02.29-.03.42-.03M24.1,16.32c-.14,0-.29,0-.45.03-.62.07-1.07.3-1.34.69-.2.29-.25.6-.26.83-1.2.02-1.97.47-2.11,1.25-.06.33-.03.92.79,1.21.39.14.85.17,1.12.18.05.17.15.39.33.59.19.23.56.52,1.19.54.05,0,.11,0,.16,0,.73,0,1.13-.26,1.34-.47.27.14.73.32,1.32.32.17,0,.33-.01.5-.04.77-.13,1.08-.56,1.18-.94.02,0,.05,0,.07,0,.51,0,.89-.27,1.08-.77.04-.1.08-.24.11-.42.06-.41,0-.74-.2-.96-.17-.2-.44-.31-.76-.31-.08,0-.15,0-.22.01-.14-.25-.42-.67-.89-1.07-.23-.19-.5-.3-.79-.3-.08,0-.15,0-.23.02-.21.03-.4.11-.56.19-.02-.04-.05-.07-.08-.11-.26-.32-.7-.49-1.3-.49h0Z"/>
            </g>
            <path class="cls-9" d="M28.83,19.29c-.02.14-.05.26-.09.36-.67-.65-1.67-.64-1.67-.64,0,0,.19-.76-.38-1.04-.56-.28-1.37.25-1.37.25,0,0-.77-1.04-1.88-.6s-.56,1.52-.56,1.52c0,0-1.34-.47-1.86,0-.28.25-.26.64-.18.93-.39-.14-.69-.4-.6-.88.2-1.16,2.14-.99,2.14-.99,0,0-.32-1.34,1.31-1.53,1.63-.19,1.63.73,1.63.73,0,0,.87-.73,1.54-.15.68.58.92,1.18.92,1.18,0,0,1.24-.38,1.05.88Z"/>
            <path class="cls-11" d="M28.83,19.29c-.02.14-.05.26-.09.36-.31.83-1.14.53-1.14.53,0,0,.11.81-.96.99-1.07.19-1.84-.37-1.84-.37,0,0-.24.62-1.4.56-.48-.02-.78-.22-.97-.44,1.28-.02,1.5-1.06,2.19-1.14,3.12-.37,2.04-1.75,1.48-2.75.25-.04.53,0,.78.21.68.58.92,1.18.92,1.18,0,0,1.24-.38,1.05.88Z"/>
            <ellipse class="cls-9" cx="26.35" cy="20.64" rx=".71" ry=".35"/>
            <ellipse class="cls-9" cx="23.83" cy="17.74" rx=".71" ry=".35"/>
            <path class="cls-9" d="M26.44,20.04c0,.1-.16.18-.36.18s-.36-.08-.36-.18.16-.18.36-.18.36.08.36.18Z"/>
            <ellipse class="cls-9" cx="24.04" cy="18.42" rx=".36" ry=".18"/>
            <path class="cls-6" d="M24.1,16.84c.95,0,1,.49,1,.54,0,.08.05.16.13.2.03.01.06.02.09.02.05,0,.1-.02.14-.05,0,0,.3-.25.66-.31.05,0,.09-.01.14-.01.17,0,.33.06.46.17.63.54.86,1.09.86,1.1.03.08.11.14.2.14.02,0,.04,0,.06,0,0,0,.15-.04.32-.04s.3.04.37.13c.11.13.11.37.08.55-.02.13-.04.23-.08.31-.11.29-.31.44-.6.44-.15,0-.27-.04-.27-.04-.02,0-.05-.01-.07-.01-.05,0-.1.02-.14.05-.06.05-.09.12-.08.2,0,.02.07.61-.78.75-.13.02-.27.04-.41.04-.75,0-1.27-.37-1.27-.37-.04-.03-.08-.04-.12-.04-.02,0-.04,0-.06,0-.06.02-.12.06-.14.12,0,.02-.2.43-1.05.43-.04,0-.09,0-.14,0-.35-.02-.63-.14-.82-.37-.23-.26-.27-.58-.27-.58-.01-.11-.11-.19-.21-.19,0,0,0,0-.01,0,0,0-.06,0-.16,0-.23,0-.66-.02-1.01-.14-.48-.17-.5-.44-.46-.64.13-.74,1.21-.82,1.67-.82.14,0,.23,0,.23,0,0,0,.01,0,.02,0,.06,0,.12-.03.16-.08.05-.05.06-.12.05-.19,0,0-.1-.44.15-.8.18-.26.51-.42.98-.47.14-.02.27-.02.39-.02M24.1,16.62c-.13,0-.26,0-.42.03-1.63.19-1.31,1.53-1.31,1.53,0,0-.1,0-.25,0-.53,0-1.73.1-1.89,1-.08.48.22.74.6.88.38.14.84.16,1.09.16.1,0,.17,0,.17,0,0,0,.04.38.32.7.19.22.5.42.97.44.05,0,.1,0,.15,0,1.04,0,1.25-.56,1.25-.56,0,0,.56.41,1.4.41.14,0,.29-.01.44-.04,1.07-.18.96-.99.96-.99,0,0,.15.05.34.05.27,0,.62-.1.8-.58.04-.1.07-.22.09-.36.12-.78-.32-.93-.67-.93-.21,0-.38.05-.38.05,0,0-.24-.6-.92-1.18-.19-.17-.4-.23-.6-.23-.06,0-.12,0-.18.02-.43.07-.76.36-.76.36,0,0,0-.75-1.22-.75h0Z"/>
          </g>
          <g>
            <g>
              <path class="cls-3" d="M22.64,14.86c-.94-.04-1.49-.47-1.78-.81-.33-.38-.48-.81-.54-1.06-.02,0-.05,0-.08,0-.41,0-1.21-.04-1.87-.28-1.13-.41-1.25-1.17-1.15-1.73.29-1.68,2.44-1.86,3.35-1.86.05,0,.09,0,.13,0-.02-.35,0-.95.38-1.48.4-.58,1.09-.92,2.03-1.03.26-.03.5-.04.71-.04.91,0,1.56.24,1.95.71.1.12.17.25.21.36.25-.16.63-.35,1.06-.42.11-.02.22-.03.33-.03.43,0,.82.14,1.15.43.87.74,1.31,1.5,1.49,1.85.13-.03.3-.05.49-.05.46,0,.84.15,1.07.42.27.31.36.78.27,1.39-.04.27-.09.48-.17.65-.26.71-.81,1.1-1.54,1.1-.12,0-.23-.01-.33-.03-.06.48-.38,1.33-1.78,1.57-.25.04-.52.07-.77.07-1.05,0-1.85-.37-2.22-.58-.25.32-.84.84-2.15.84-.08,0-.17,0-.25,0Z"/>
              <path class="cls-10" d="M23.82,6.81c2,0,2,1.24,2,1.24,0,0,.55-.47,1.26-.59.09-.02.19-.03.29-.03.33,0,.67.1.99.37,1.12.96,1.51,1.95,1.51,1.95,0,0,.29-.09.63-.09.57,0,1.29.24,1.1,1.53-.03.23-.08.43-.15.59-.29.79-.88.95-1.32.95-.32,0-.56-.09-.56-.09,0,0,.18,1.34-1.58,1.64-.25.04-.5.06-.73.06-1.37,0-2.3-.68-2.3-.68,0,0-.36.93-2.07.93-.08,0-.16,0-.24,0-.78-.03-1.29-.36-1.6-.73-.46-.53-.53-1.15-.53-1.15,0,0-.11,0-.28,0-.4,0-1.16-.03-1.79-.26-.63-.23-1.13-.66-.99-1.45.26-1.49,2.23-1.65,3.11-1.65.25,0,.41.01.41.01,0,0-.53-2.22,2.16-2.53.25-.03.48-.04.69-.04M23.82,6.32c-.23,0-.48.02-.74.05-1.02.12-1.76.5-2.21,1.14-.33.47-.42.99-.43,1.38-1.99.03-3.25.78-3.47,2.06-.09.54-.05,1.51,1.31,2,.65.23,1.4.28,1.85.29.09.28.25.64.55.98.32.38.93.85,1.95.9.09,0,.18,0,.26,0,1.2,0,1.86-.42,2.2-.77.44.23,1.21.52,2.17.52.27,0,.55-.02.82-.07,1.27-.22,1.78-.93,1.94-1.55.04,0,.08,0,.12,0,.84,0,1.47-.45,1.78-1.27.07-.17.13-.39.18-.69.1-.68,0-1.22-.33-1.59-.29-.33-.72-.51-1.26-.51-.13,0-.25.01-.36.02-.23-.41-.68-1.1-1.47-1.77-.37-.32-.82-.49-1.31-.49-.13,0-.25.01-.38.03-.35.06-.67.19-.92.32-.04-.06-.08-.12-.12-.18-.43-.53-1.15-.8-2.14-.8h0Z"/>
            </g>
            <path class="cls-9" d="M31.61,11.21c-.03.23-.08.43-.15.59-1.11-1.07-2.75-1.05-2.75-1.05,0,0,.31-1.26-.62-1.72-.92-.46-2.25.4-2.25.4,0,0-1.27-1.71-3.09-.99-1.82.72-.92,2.5-.92,2.5,0,0-2.2-.77-3.07,0-.46.42-.43,1.05-.3,1.54-.63-.23-1.13-.66-.99-1.45.33-1.92,3.52-1.64,3.52-1.64,0,0-.53-2.22,2.16-2.53,2.69-.31,2.69,1.2,2.69,1.2,0,0,1.43-1.2,2.54-.24,1.12.96,1.51,1.95,1.51,1.95,0,0,2.04-.62,1.73,1.44Z"/>
            <path class="cls-12" d="M31.61,11.21c-.03.23-.08.43-.15.59-.51,1.36-1.88.87-1.88.87,0,0,.18,1.34-1.58,1.64-1.77.31-3.04-.61-3.04-.61,0,0-.39,1.02-2.31.92-.78-.03-1.29-.36-1.6-.73,2.11-.04,2.47-1.75,3.6-1.88,5.15-.6,3.37-2.89,2.43-4.53.4-.07.87-.01,1.28.35,1.12.96,1.51,1.95,1.51,1.95,0,0,2.04-.62,1.73,1.44Z"/>
            <ellipse class="cls-9" cx="27.52" cy="13.44" rx="1.18" ry=".58"/>
            <ellipse class="cls-9" cx="23.36" cy="8.66" rx="1.18" ry=".58"/>
            <path class="cls-9" d="M27.68,12.45c0,.16-.26.29-.59.29s-.59-.13-.59-.29.26-.29.59-.29.59.13.59.29Z"/>
            <ellipse class="cls-9" cx="23.72" cy="9.77" rx=".59" ry=".29"/>
            <path class="cls-4" d="M23.82,7.17c1.57,0,1.64.8,1.65.89,0,.14.08.26.21.32.05.02.1.03.15.03.08,0,.16-.03.23-.08,0,0,.49-.41,1.09-.51.08-.01.15-.02.23-.02.28,0,.54.1.76.29,1.03.88,1.41,1.8,1.41,1.81.05.14.19.22.33.22.03,0,.07,0,.1-.02,0,0,.25-.07.53-.07s.49.07.62.21c.19.22.17.62.13.91-.03.22-.07.38-.13.52-.18.49-.5.72-.98.72-.25,0-.44-.07-.44-.07-.04-.01-.08-.02-.12-.02-.08,0-.16.03-.22.08-.1.08-.15.2-.13.32,0,.04.12,1-1.29,1.24-.22.04-.45.06-.67.06-1.23,0-2.09-.6-2.09-.61-.06-.04-.13-.07-.2-.07-.03,0-.07,0-.1.01-.1.03-.19.11-.23.2-.01.03-.33.71-1.74.71-.07,0-.15,0-.23,0-.58-.03-1.03-.23-1.35-.61-.38-.43-.45-.96-.45-.96-.02-.18-.17-.32-.35-.32,0,0-.01,0-.02,0,0,0-.1,0-.26,0-.37,0-1.09-.03-1.67-.24-.79-.29-.82-.72-.76-1.06.21-1.23,2-1.36,2.76-1.36.23,0,.37.01.38.01.01,0,.02,0,.03,0,.1,0,.2-.04.27-.12.07-.09.1-.2.08-.31,0,0-.16-.73.24-1.31.3-.43.84-.69,1.61-.78.23-.03.45-.04.64-.04M23.82,6.81c-.21,0-.43.01-.69.04-2.69.31-2.16,2.53-2.16,2.53,0,0-.16-.01-.41-.01-.87,0-2.85.17-3.11,1.65-.14.8.36,1.22.99,1.45.63.23,1.39.26,1.79.26.17,0,.28,0,.28,0,0,0,.07.62.53,1.15.31.37.82.69,1.6.73.08,0,.16,0,.24,0,1.71,0,2.07-.93,2.07-.93,0,0,.93.68,2.3.68.23,0,.48-.02.73-.06,1.77-.3,1.58-1.64,1.58-1.64,0,0,.24.09.56.09.44,0,1.02-.17,1.32-.95.07-.16.12-.36.15-.59.19-1.29-.53-1.53-1.1-1.53-.34,0-.63.09-.63.09,0,0-.39-.99-1.51-1.95-.32-.27-.66-.37-.99-.37-.1,0-.2,0-.29.03-.7.12-1.26.59-1.26.59,0,0,0-1.24-2-1.24h0Z"/>
          </g>
          <g>
            <g>
              <path class="cls-2" d="M5.52,17.67c-.49-.02-.77-.24-.92-.42-.17-.2-.25-.42-.28-.55h-.04c-.21,0-.63-.02-.97-.14-.59-.21-.65-.6-.6-.9.15-.87,1.27-.97,1.74-.97.02,0,.05,0,.07,0-.01-.18,0-.49.2-.77.21-.3.56-.48,1.06-.54.14-.02.26-.02.37-.02.47,0,.81.12,1.01.37.05.07.09.13.11.19.13-.08.33-.18.55-.22.06,0,.11-.01.17-.01.22,0,.43.08.6.22.45.38.68.78.77.96.07-.01.16-.03.26-.03.24,0,.43.08.56.22.14.16.19.41.14.72-.02.14-.05.25-.09.34-.14.37-.42.57-.8.57-.06,0-.12,0-.17-.01-.03.25-.2.69-.92.82-.14.02-.27.04-.4.04-.55,0-.96-.19-1.16-.3-.13.17-.44.43-1.11.43h-.13Z"/>
              <path class="cls-16" d="M6.13,13.49c1.04,0,1.04.65,1.04.65,0,0,.29-.25.65-.31.05,0,.1-.01.15-.01.17,0,.35.05.51.19.58.5.79,1.01.79,1.01,0,0,.15-.05.33-.05.3,0,.67.13.57.8-.02.12-.04.22-.08.31-.15.41-.46.5-.68.5-.17,0-.29-.05-.29-.05,0,0,.1.7-.82.85-.13.02-.26.03-.38.03-.71,0-1.2-.35-1.2-.35,0,0-.19.48-1.07.48-.04,0-.08,0-.13,0-.41-.02-.67-.19-.83-.38-.24-.28-.28-.6-.28-.6,0,0-.05,0-.14,0-.21,0-.6-.02-.93-.14-.33-.12-.59-.34-.52-.76.13-.77,1.16-.86,1.61-.86.13,0,.21,0,.21,0,0,0-.28-1.15,1.12-1.31.13-.02.25-.02.36-.02M6.13,13.24c-.12,0-.24,0-.39.02-.53.06-.92.26-1.15.59-.17.25-.22.51-.22.71-1.03.02-1.69.4-1.8,1.07-.05.28-.02.78.68,1.04.34.12.73.15.96.15.05.14.13.33.28.51.17.2.48.44,1.02.47.05,0,.09,0,.14,0,.62,0,.97-.22,1.14-.4.23.12.63.27,1.13.27.14,0,.28-.01.42-.04.66-.11.93-.48,1.01-.8.02,0,.04,0,.06,0,.44,0,.76-.24.92-.66.04-.09.07-.2.09-.36.05-.36,0-.63-.17-.83-.15-.17-.37-.26-.65-.26-.07,0-.13,0-.19.01-.12-.21-.36-.57-.76-.92-.19-.17-.43-.25-.68-.25-.07,0-.13,0-.2.02-.18.03-.35.1-.48.17-.02-.03-.04-.06-.06-.09-.22-.28-.6-.42-1.11-.42h0Z"/>
            </g>
            <path class="cls-9" d="M10.18,15.78c-.02.12-.04.22-.08.31-.58-.56-1.43-.55-1.43-.55,0,0,.16-.65-.32-.89-.48-.24-1.17.21-1.17.21,0,0-.66-.89-1.61-.52s-.48,1.3-.48,1.3c0,0-1.15-.4-1.6,0-.24.22-.22.55-.16.8-.33-.12-.59-.34-.52-.76.17-1,1.83-.85,1.83-.85,0,0-.28-1.15,1.12-1.31,1.4-.16,1.4.62,1.4.62,0,0,.74-.62,1.32-.13.58.5.79,1.01.79,1.01,0,0,1.06-.32.9.75Z"/>
            <path class="cls-11" d="M10.18,15.78c-.02.12-.04.22-.08.31-.26.71-.98.45-.98.45,0,0,.1.7-.82.85-.92.16-1.58-.32-1.58-.32,0,0-.2.53-1.2.48-.41-.02-.67-.19-.83-.38,1.09-.02,1.28-.91,1.87-.98,2.67-.31,1.75-1.5,1.26-2.36.21-.04.45,0,.67.18.58.5.79,1.01.79,1.01,0,0,1.06-.32.9.75Z"/>
            <ellipse class="cls-9" cx="8.05" cy="16.94" rx=".61" ry=".3"/>
            <ellipse class="cls-9" cx="5.89" cy="14.45" rx=".61" ry=".3"/>
            <path class="cls-9" d="M8.13,16.42c0,.08-.14.15-.31.15s-.31-.07-.31-.15.14-.15.31-.15.31.07.31.15Z"/>
            <ellipse class="cls-9" cx="6.08" cy="15.03" rx=".31" ry=".15"/>
            <path class="cls-1" d="M6.13,13.68c.82,0,.85.42.86.46,0,.07.04.14.11.17.02.01.05.02.08.02.04,0,.09-.02.12-.04,0,0,.26-.21.57-.26.04,0,.08-.01.12-.01.15,0,.28.05.39.15.54.46.73.94.73.94.03.07.1.12.17.12.02,0,.04,0,.05,0,0,0,.13-.04.28-.04s.26.04.32.11c.1.11.09.32.07.47-.02.11-.04.2-.07.27-.09.25-.26.38-.51.38-.13,0-.23-.03-.23-.03-.02,0-.04-.01-.06-.01-.04,0-.08.01-.12.04-.05.04-.08.1-.07.17,0,.02.06.52-.67.64-.11.02-.23.03-.35.03-.64,0-1.08-.31-1.09-.32-.03-.02-.07-.03-.11-.03-.02,0-.03,0-.05,0-.05.01-.1.05-.12.11,0,.02-.17.37-.9.37-.04,0-.08,0-.12,0-.3-.01-.54-.12-.7-.31-.2-.23-.23-.5-.23-.5-.01-.09-.09-.16-.18-.16,0,0,0,0-.01,0,0,0-.05,0-.13,0-.19,0-.57-.02-.87-.12-.41-.15-.43-.37-.4-.55.11-.64,1.04-.71,1.43-.71.12,0,.19,0,.2,0,0,0,.01,0,.02,0,.05,0,.1-.02.14-.06.04-.04.05-.11.04-.16,0,0-.08-.38.13-.69.16-.22.44-.36.83-.4.12-.01.23-.02.33-.02M6.13,13.49c-.11,0-.23,0-.36.02-1.4.16-1.12,1.31-1.12,1.31,0,0-.08,0-.21,0-.45,0-1.48.09-1.61.86-.07.41.19.64.52.76.33.12.72.14.93.14.09,0,.14,0,.14,0,0,0,.04.32.28.6.16.19.43.36.83.38.04,0,.09,0,.13,0,.89,0,1.07-.48,1.07-.48,0,0,.48.35,1.2.35.12,0,.25-.01.38-.03.92-.16.82-.85.82-.85,0,0,.13.05.29.05.23,0,.53-.09.68-.5.04-.08.06-.19.08-.31.1-.67-.27-.8-.57-.8-.18,0-.33.05-.33.05,0,0-.2-.52-.79-1.01-.17-.14-.34-.19-.51-.19-.05,0-.1,0-.15.01-.37.06-.65.31-.65.31,0,0,0-.65-1.04-.65h0Z"/>
          </g>
          <g>
            <g>
              <path class="cls-5" d="M4.88,11.99c-.8-.04-1.27-.4-1.52-.7-.28-.33-.41-.69-.47-.91h-.06c-.35,0-1.03-.03-1.6-.24-.97-.35-1.07-1-.99-1.48.25-1.43,2.09-1.59,2.87-1.59.04,0,.08,0,.11,0-.02-.3,0-.81.33-1.27.34-.49.93-.79,1.74-.88.22-.03.43-.04.61-.04.78,0,1.34.21,1.67.61.09.11.14.22.18.31.21-.13.54-.3.91-.36.09-.02.19-.02.28-.02.37,0,.7.12.98.37.74.64,1.13,1.29,1.28,1.59.11-.02.26-.04.42-.04.4,0,.72.12.92.36.23.27.31.67.23,1.19-.04.23-.08.41-.14.56-.23.61-.7.94-1.32.94-.1,0-.2,0-.28-.02-.05.41-.32,1.14-1.52,1.35-.23.04-.45.06-.66.06-.9,0-1.59-.32-1.9-.5-.21.28-.72.72-1.84.72-.07,0-.14,0-.22,0Z"/>
              <path class="cls-10" d="M5.89,5.1c1.72,0,1.72,1.06,1.72,1.06,0,0,.47-.41,1.08-.5.08-.01.17-.02.25-.02.28,0,.57.08.85.32.96.82,1.29,1.67,1.29,1.67,0,0,.25-.08.54-.08.49,0,1.11.21.94,1.31-.03.2-.07.37-.13.5-.25.67-.75.82-1.13.82-.27,0-.48-.08-.48-.08,0,0,.16,1.15-1.35,1.4-.22.04-.43.05-.63.05-1.18,0-1.97-.58-1.97-.58,0,0-.31.8-1.77.8-.07,0-.14,0-.21,0-.67-.03-1.11-.31-1.37-.62-.4-.45-.45-.99-.45-.99,0,0-.09,0-.24,0-.34,0-.99-.03-1.53-.22-.54-.2-.97-.56-.85-1.25.22-1.27,1.91-1.42,2.66-1.42.22,0,.35.01.35.01,0,0-.45-1.9,1.85-2.16.22-.02.41-.04.59-.04M5.89,4.67c-.2,0-.41.01-.64.04-.87.1-1.51.43-1.89.97-.28.4-.36.85-.37,1.18-1.7.02-2.78.66-2.97,1.76-.08.46-.04,1.29,1.12,1.71.55.2,1.2.24,1.58.25.08.24.22.55.47.84.28.33.79.73,1.67.77.08,0,.15,0,.23,0,1.03,0,1.59-.36,1.88-.66.38.19,1.04.45,1.86.45.23,0,.47-.02.7-.06,1.09-.18,1.53-.8,1.66-1.32.03,0,.07,0,.1,0,.72,0,1.26-.39,1.52-1.09.06-.14.11-.34.15-.59.09-.59,0-1.04-.28-1.36-.24-.28-.62-.43-1.08-.43-.11,0-.22,0-.31.02-.2-.35-.59-.94-1.25-1.51-.32-.27-.71-.42-1.12-.42-.11,0-.22.01-.32.03-.3.05-.57.16-.79.27-.03-.05-.07-.1-.11-.15-.37-.46-.98-.69-1.83-.69h0Z"/>
            </g>
            <path class="cls-9" d="M12.56,8.86c-.03.2-.07.37-.13.5-.95-.92-2.35-.9-2.35-.9,0,0,.27-1.08-.53-1.47-.79-.4-1.93.35-1.93.35,0,0-1.09-1.46-2.65-.85-1.56.61-.79,2.14-.79,2.14,0,0-1.89-.66-2.63,0-.4.36-.37.9-.26,1.31-.54-.2-.97-.56-.85-1.25.29-1.64,3.01-1.4,3.01-1.4,0,0-.45-1.9,1.85-2.16,2.3-.27,2.3,1.03,2.3,1.03,0,0,1.23-1.03,2.17-.21.96.82,1.29,1.67,1.29,1.67,0,0,1.75-.53,1.48,1.24Z"/>
            <path class="cls-12" d="M12.56,8.86c-.03.2-.07.37-.13.5-.43,1.17-1.61.74-1.61.74,0,0,.16,1.15-1.35,1.4-1.51.27-2.6-.52-2.6-.52,0,0-.34.87-1.98.79-.67-.03-1.11-.31-1.37-.62,1.8-.03,2.11-1.5,3.09-1.61,4.41-.52,2.88-2.47,2.08-3.88.35-.06.74,0,1.1.3.96.82,1.29,1.67,1.29,1.67,0,0,1.75-.53,1.48,1.24Z"/>
            <ellipse class="cls-9" cx="9.06" cy="10.77" rx="1.01" ry=".5"/>
            <ellipse class="cls-9" cx="5.5" cy="6.68" rx="1.01" ry=".5"/>
            <path class="cls-9" d="M9.19,9.92c0,.14-.23.25-.5.25s-.5-.11-.5-.25.23-.25.5-.25.5.11.5.25Z"/>
            <ellipse class="cls-9" cx="5.8" cy="7.63" rx=".5" ry=".25"/>
            <path class="cls-13" d="M5.89,5.4c1.34,0,1.41.69,1.41.76,0,.12.07.23.18.28.04.02.08.03.13.03.07,0,.14-.02.2-.07,0,0,.42-.35.93-.44.06-.01.13-.02.2-.02.24,0,.46.08.65.25.88.76,1.21,1.54,1.21,1.55.05.12.16.19.28.19.03,0,.06,0,.09-.01,0,0,.21-.06.45-.06.25,0,.42.06.53.18.16.19.15.53.11.78-.03.19-.06.33-.11.44-.16.42-.43.62-.84.62-.21,0-.38-.06-.38-.06-.03-.01-.07-.02-.1-.02-.07,0-.14.02-.19.07-.08.07-.12.17-.11.28,0,.03.1.86-1.11,1.06-.19.03-.38.05-.57.05-1.06,0-1.79-.52-1.79-.52-.05-.04-.11-.06-.18-.06-.03,0-.06,0-.08.01-.09.02-.16.09-.2.17-.01.02-.28.61-1.49.61-.06,0-.13,0-.19,0-.5-.02-.88-.2-1.16-.52-.32-.37-.38-.82-.38-.82-.02-.15-.15-.27-.3-.27,0,0-.01,0-.02,0,0,0-.09,0-.22,0-.32,0-.93-.03-1.43-.2-.68-.25-.7-.61-.65-.91.18-1.05,1.71-1.16,2.36-1.16.2,0,.32.01.33.01,0,0,.02,0,.03,0,.09,0,.17-.04.23-.11.06-.07.09-.17.07-.27,0,0-.14-.63.21-1.12.26-.37.72-.59,1.38-.67.2-.02.38-.03.55-.03M5.89,5.1c-.18,0-.37.01-.59.04-2.3.27-1.85,2.16-1.85,2.16,0,0-.14-.01-.35-.01-.75,0-2.44.14-2.66,1.42-.12.68.31,1.05.85,1.25.54.19,1.19.22,1.53.22.15,0,.24,0,.24,0,0,0,.06.53.45.99.27.32.7.59,1.37.62.07,0,.14,0,.21,0,1.46,0,1.77-.8,1.77-.8,0,0,.8.58,1.97.58.2,0,.41-.02.63-.05,1.51-.26,1.35-1.4,1.35-1.4,0,0,.21.08.48.08.38,0,.88-.14,1.13-.82.06-.14.1-.31.13-.5.17-1.1-.45-1.31-.94-1.31-.29,0-.54.08-.54.08,0,0-.34-.85-1.29-1.67-.27-.23-.57-.32-.85-.32-.09,0-.17,0-.25.02-.6.1-1.08.5-1.08.5,0,0,0-1.06-1.72-1.06h0Z"/>
          </g>
        </g>
      </g>
    </g>
  </g>
</svg>