<?xml version="1.0" encoding="UTF-8"?>
<svg xmlns="http://www.w3.org/2000/svg" xmlns:xlink="http://www.w3.org/1999/xlink" viewBox="0 0 23.51 40.52">
  <defs>
    <style>
      .cls-1 {
        fill: url(#linear-gradient-2);
      }

      .cls-2 {
        fill: #ed87de;
      }

      .cls-3 {
        fill: url(#linear-gradient);
      }

      .cls-4 {
        isolation: isolate;
      }

      .cls-5 {
        fill: #fc74c8;
        mix-blend-mode: multiply;
        opacity: .22;
      }
    </style>
    <linearGradient id="linear-gradient" x1="12.33" y1="38.09" x2="11.41" y2="9.6" gradientUnits="userSpaceOnUse">
      <stop offset="0" stop-color="#e8faff"/>
      <stop offset=".52" stop-color="#e9f5fa"/>
      <stop offset=".92" stop-color="#ebeef2"/>
    </linearGradient>
    <linearGradient id="linear-gradient-2" x1="1" y1="20.26" x2="22.51" y2="20.26" gradientUnits="userSpaceOnUse">
      <stop offset="0" stop-color="#fffce8"/>
      <stop offset=".52" stop-color="#faf8ea"/>
      <stop offset=".92" stop-color="#f2f2f0"/>
    </linearGradient>
  </defs>
  <g class="cls-4">
    <g id="Layer_2" data-name="Layer 2">
      <g id="Layer_1-2" data-name="Layer 1">
        <g>
          <g>
            <path class="cls-3" d="M7.58,40.02c-.07,0-.13-.01-.2-.04-.22-.1-.35-.34-.29-.57l3.72-15.7s-9.8.53-9.81.53c-.18,0-.34-.09-.43-.25-.09-.16-.09-.37.02-.52L15.55.72c.09-.14.25-.22.42-.22.07,0,.13.01.2.04.22.09.35.34.29.57l-3.56,15.57s9.61-.5,9.61-.5c.18,0,.34.1.43.25.09.16.09.37-.02.52l-14.93,22.84c-.09.15-.25.23-.42.23Z"/>
            <path class="cls-2" d="M15.97,1h0M15.97,1l-3.71,16.21,8.1-.42,2.15-.11-14.93,22.84,3.87-16.35-10.45.57,1.16-1.76L15.97,1M15.97,0s-.06,0-.09,0c-.17.02-.32.07-.46.16-.09.06-.17.13-.24.21-.02.03-.04.06-.06.09L1.32,21.43l-1.16,1.76c-.21.32-.22.72-.03,1.05.18.31.51.5.87.5.02,0,.04,0,.05,0l9.11-.5-3.56,15.05c-.11.47.13.96.58,1.15.13.05.26.08.39.08.33,0,.65-.16.84-.45l14.93-22.84c.21-.32.22-.72.03-1.05-.18-.31-.51-.5-.87-.5-.02,0-.03,0-.05,0l-2.15.11-6.78.35,3.4-14.85c.03-.09.04-.19.04-.29C16.97.45,16.54.01,15.99,0c0,0-.02,0-.02,0h0ZM15.97,2h0,0Z"/>
          </g>
          <path class="cls-5" d="M7.58,39.52l3.87-16.35-10.45.57,1.16-1.76c12.78.9,18.2-5.19,18.2-5.19l2.15-.11-14.93,22.84Z"/>
          <path class="cls-1" d="M15.18,2.84l-3.27,14.29c-.02.11,0,.22.07.31.07.08.17.13.27.13,0,0,.01,0,.02,0l8.1-.42,1.45-.07-13.44,20.55,3.4-14.37c.03-.11,0-.22-.07-.31-.07-.08-.17-.13-.27-.13,0,0-.01,0-.02,0l-9.75.53.77-1.17L15.18,2.84M15.97,1h0,0ZM15.97,1L2.16,21.98l-1.16,1.76,10.45-.57-3.87,16.35,14.93-22.84-2.15.11-8.1.42L15.97,1h0Z"/>
        </g>
      </g>
    </g>
  </g>
</svg>